<svg xmlns="http://www.w3.org/2000/svg" height="832" preserveAspectRatio="none" style="display: block;" version="1.1" viewBox="0 0 2048 1331" width="1280">
<path d="M 0 0 L 2048 0 L 2048 1331 L 0 1331 L 0 0 z" fill="rgb(8,8,8)" transform="translate(0,0)"></path>
<path d="M 714.097 532.049 L 739.641 532.124 L 882.479 728.1 L 882.841 532.301 L 899.799 532.36 C 900.445 587.111 899.532 642.607 899.682 697.417 C 899.701 704.264 899.795 745.399 898.677 749.325 L 897.095 750.038 L 878.025 750.024 C 857.022 718.984 828.305 681.385 805.55 650.66 L 731.017 548.359 L 730.962 749.865 L 714.208 749.862 L 714.097 532.049 z" fill="rgb(237,234,227)" transform="translate(0,0)"></path>
<path d="M 1455.55 531.982 L 1474.61 532.04 C 1472.07 537.294 1468.57 543.338 1465.74 548.537 C 1430.42 612.669 1391.23 684.735 1358.54 750.018 L 1347.38 750.142 C 1329.05 719.018 1311.5 683.085 1293.94 651.057 C 1272.56 612.066 1250.31 571.665 1230.06 532.095 L 1249.25 532.077 C 1276.51 581.012 1301.91 632.158 1329.06 681.301 C 1337.24 696.101 1344.55 711.676 1352.91 726.332 C 1364.14 702.695 1380 673.971 1392.33 650.65 L 1455.55 531.982 z" fill="rgb(237,234,227)" transform="translate(0,0)"></path>
<path d="M 938.289 532.279 L 955.92 532.353 C 956.067 584.213 955.881 636.073 955.361 687.93 L 1105.98 532.334 L 1129.56 532.494 C 1118.6 543.349 1107.72 554.285 1096.92 565.301 C 1049.6 613.625 1002.55 662.202 955.751 711.032 L 955.659 749.972 L 938.498 749.984 C 937.441 678.279 938.351 604.184 938.289 532.279 z" fill="rgb(237,234,227)" transform="translate(0,0)"></path>
<path d="M 460.133 531.971 L 480.709 531.953 C 492.185 545.187 505.876 564.285 516.841 578.652 L 581.979 663.983 L 581.891 750.079 L 564.171 750.205 C 564.04 722.506 564.136 694.806 564.458 667.109 C 555.386 657.763 537.859 633.572 529.178 622.292 C 505.926 592.367 482.91 562.259 460.133 531.971 z" fill="rgb(237,234,227)" transform="translate(0,0)"></path>
<path d="M 1153.24 532.791 L 1170.13 532.659 L 1170.11 722.198 L 1162.46 730.41 L 1153.24 738.915 L 1153.24 532.791 z" fill="rgb(237,234,227)" transform="translate(0,0)"></path>
<path d="M 1412.79 733.41 C 1468.94 735.287 1531.5 733.367 1588.38 733.668 C 1585.99 739.877 1584.27 743.949 1581.27 749.908 L 1404.45 749.792 C 1407.41 742.872 1408.99 739.826 1412.79 733.41 z" fill="rgb(74,255,114)" transform="translate(0,0)"></path>
<path d="M 673.207 531.876 L 693.742 532.314 C 682.901 544.286 669.013 563.263 658.846 576.433 C 638.299 603.284 617.568 629.994 596.652 656.559 L 591.001 663.402 C 587.581 659.183 584.111 655.006 580.592 650.869 C 588.747 638.332 603.271 621.441 612.983 609.098 L 673.207 531.876 z" fill="rgb(237,234,227)" transform="translate(0,0)"></path>
<path d="M 1168.93 733.698 C 1211.4 735.657 1267.27 734.162 1310.76 734.217 C 1313.52 739.405 1316.22 744.618 1318.87 749.856 L 1303.88 749.814 L 1153.06 749.92 C 1158.41 743.161 1162.61 739.356 1168.93 733.698 z" fill="rgb(237,234,227)" transform="translate(0,0)"></path>
<path d="M 1027.47 645.11 C 1030.58 646.977 1125.09 742.864 1129.73 749.029 C 1128.17 750.212 1123.75 749.823 1121.5 749.821 L 1108.22 749.844 C 1077.63 718.874 1047.47 687.493 1017.73 655.709 L 1027.47 645.11 z" fill="rgb(237,234,227)" transform="translate(0,0)"></path>
<path d="M 822.922 777.062 C 830.399 779.043 832.888 787.837 838.463 794.348 C 838.473 791.226 837.764 781.347 839.535 778.291 C 839.724 777.965 840.884 778.034 841.2 778.654 C 842.291 780.797 841.643 783.747 841.888 786.073 C 841.837 791.504 842.474 796.845 841.022 802.129 C 835.244 799.821 830.435 789.793 826.854 784.047 C 826.858 783.629 828.253 807.329 823.419 800.538 C 822.369 799.063 822.874 780.608 822.922 777.062 z" fill="rgb(170,170,170)" transform="translate(0,0)"></path>
<path d="M 772.49 777.12 C 777.765 778.461 777.116 779.651 779.098 785.483 C 779.939 787.958 785.368 799.56 783.682 801.044 C 781.442 803.014 778.721 797.427 777.345 795.992 C 775.296 796.162 773.181 796.21 771.125 796.474 C 769.101 796.734 768.715 799.897 766.867 800.855 C 766.383 801.232 764.189 801.435 764.194 800.396 C 764.207 797.83 765.79 794.998 766.724 792.421 C 768.565 787.341 770.569 782.211 772.49 777.12 z" fill="rgb(170,170,170)" transform="translate(0,0)"></path>
<path d="M 773.912 783.487 C 776.091 787.95 778.34 790.532 774.711 794.21 C 769.272 790.867 771.885 789.868 773.912 783.487 z" fill="rgb(8,8,8)" transform="translate(0,0)"></path>
<path d="M 882.431 777.239 C 890.401 779.47 885.562 781.29 887.209 786.499 C 890.241 787.455 899.286 773.748 901.654 778.564 C 901.523 780.348 893.939 786.477 892.317 787.914 C 894.741 790.977 897.221 793.736 899.685 796.733 C 900.949 798.624 902.492 799.718 900.652 801.35 C 895.04 802.25 893.448 793.274 889.704 791.37 C 884.379 789.215 889.085 804.989 882.636 800.306 C 881.595 799.55 882.218 779.756 882.431 777.239 z" fill="rgb(170,170,170)" transform="translate(0,0)"></path>
<path d="M 1329.44 777.231 C 1337.26 779.7 1331.38 781.43 1333.78 787.093 C 1334.16 787.988 1339.91 788.066 1341.31 787.963 C 1345.75 787.636 1342.65 780.972 1344.45 778.471 C 1344.92 777.815 1347.22 777.808 1347.54 778.645 C 1348.52 781.147 1347.98 785.074 1348.03 787.896 C 1348.11 792.604 1348.05 797.439 1347.72 802.136 C 1339.85 800.513 1346.5 792.489 1343.31 791.417 C 1327.81 786.209 1335.75 800.382 1330.66 801.195 C 1327.66 798.77 1328.97 781.644 1329.44 777.231 z" fill="rgb(170,170,170)" transform="translate(0,0)"></path>
<path d="M 942.945 778.524 C 945.974 778.515 957.665 777.79 959.15 779.824 C 959.072 785.334 944.88 777.368 947.593 786.772 C 948.439 789.704 960.351 785.187 957.44 790.436 C 956.772 791.642 948.887 791.075 947.257 791.065 C 947.808 804.022 952.783 794.633 958.452 797.672 C 966.662 802.074 943.88 801.049 943.028 801.059 L 942.945 778.524 z" fill="rgb(170,170,170)" transform="translate(0,0)"></path>
<path d="M 1274.89 777.951 C 1280.61 777.836 1286.43 777.454 1288.98 783.895 L 1288.25 784.919 L 1288.64 784.967 C 1283.14 785.657 1278.12 776.871 1273.32 785.214 C 1270.58 789.983 1273.59 800.244 1280.76 797.065 C 1282.19 795.509 1288.4 789.884 1288.44 794.403 C 1288.49 801.227 1275.09 803.509 1271.37 798.633 C 1264.87 790.11 1267.87 783.9 1274.89 777.951 z" fill="rgb(170,170,170)" transform="translate(0,0)"></path>
<path d="M 1052.88 778.197 C 1057.86 778.179 1063.05 778.027 1067.99 778.372 C 1069.51 778.361 1069.53 781.135 1068.84 781.367 C 1061.17 783.939 1056.72 776.9 1057.16 788.127 C 1058.39 788.94 1058.2 788.866 1058.84 790.344 C 1049.65 799.555 1067.58 797.225 1067.79 797.39 C 1074.37 802.539 1054.72 800.985 1052.77 800.994 C 1052.84 793.396 1052.88 785.796 1052.88 778.197 z" fill="rgb(170,170,170)" transform="translate(0,0)"></path>
<path d="M 1118.05 795.709 C 1119.33 792.219 1123.29 778.033 1126.52 777.784 C 1128.21 779.417 1127.05 781.351 1126.43 783.242 C 1121.61 796.8 1118.71 814.262 1111.42 789.598 C 1110.03 784.909 1108.42 782.49 1107.96 777.404 C 1112.2 778.373 1112.14 777.955 1113.33 781.945 C 1114.73 786.59 1116.3 791.181 1118.05 795.709 z" fill="rgb(170,170,170)" transform="translate(0,0)"></path>
<path d="M 710.207 777.565 C 717.808 778.454 716.651 781.686 721.157 788.442 C 722.031 786.834 726.111 778.592 726.598 778.45 C 733.897 776.319 728.467 783.473 727.049 785.595 C 720.951 795.07 723.536 796.522 721.047 807.519 C 720.253 804.858 718.584 800.006 718.653 797.494 C 718.867 789.744 713.692 785.608 710.207 777.565 z" fill="rgb(170,170,170)" transform="translate(0,0)"></path>
<path d="M 1209.73 778.435 C 1212.57 778.149 1226.99 777.232 1228.31 778.729 C 1228.73 779.196 1228.9 779.831 1228.78 780.443 C 1228.27 783.074 1224.14 781.092 1223.03 782.219 C 1221.83 783.442 1222.35 793.271 1222.35 795.25 C 1222.33 796.81 1222.84 801.912 1219.99 801.43 C 1214.3 800.467 1221.98 780.961 1215 781.823 C 1211.17 782.297 1211.31 781.744 1209.73 778.435 z" fill="rgb(170,170,170)" transform="translate(0,0)"></path>
<path d="M 998.833 777.233 C 1007.6 780.325 1000.26 790.639 1003.3 796.883 C 1004.87 800.106 1012.25 794.163 1014.7 800.725 C 1009.31 800.936 1003.94 800.942 998.535 800.999 C 998.505 793.615 998.1 784.345 998.833 777.233 z" fill="rgb(170,170,170)" transform="translate(0,0)"></path>
<path d="M 1168.25 777.32 C 1168.73 777.501 1171.22 778.272 1171.31 778.781 C 1172.42 784.631 1171.85 795.771 1171.62 801.507 C 1171.11 801.381 1168.58 800.846 1168.49 800.404 C 1167.48 795.661 1167.98 781.681 1168.25 777.32 z" fill="rgb(170,170,170)" transform="translate(0,0)"></path>
<path d="M 1057.16 788.127 C 1071.72 787.345 1071.08 792.065 1058.84 790.344 C 1058.2 788.866 1058.39 788.94 1057.16 788.127 z" fill="rgb(170,170,170)" transform="translate(0,0)"></path>
<metadata><recraft-signature>{"signed_by": "recraft", "signature_b64": "SGGQk2mdym5MvQe+J/oFUDsZtvacSojO41sYM5jsyCbz6tD6+dqn8xHiGIAFIGZ0LfLXT+UKhWBH7XMxWmfFDA==", "signing_algo": "Ed25519", "generation_timestamp": 1778471432, "identifier": "09189a65-b6f5-4d66-b3fc-013e700adc76"}</recraft-signature></metadata></svg>